<?xml version="1.0" encoding="UTF-8" standalone="no"?>
<!-- Created with Inkscape (http://www.inkscape.org/) -->

<svg
   xmlns:dc="http://purl.org/dc/elements/1.1/"
   xmlns:cc="http://creativecommons.org/ns#"
   xmlns:rdf="http://www.w3.org/1999/02/22-rdf-syntax-ns#"
   xmlns:svg="http://www.w3.org/2000/svg"
   xmlns="http://www.w3.org/2000/svg"
   xmlns:sodipodi="http://sodipodi.sourceforge.net/DTD/sodipodi-0.dtd"
   xmlns:inkscape="http://www.inkscape.org/namespaces/inkscape"
   width="64px"
   height="64px"
   viewBox="0 0 64 64"
   version="1.1"
   id="SVGRoot"
   inkscape:version="0.92.4 (5da689c313, 2019-01-14)"
   sodipodi:docname="settings-icon.svg">
  <defs
     id="defs1388" />
  <sodipodi:namedview
     id="base"
     pagecolor="#ffffff"
     bordercolor="#666666"
     borderopacity="1.0"
     inkscape:pageopacity="0.0"
     inkscape:pageshadow="2"
     inkscape:zoom="3.15625"
     inkscape:cx="32"
     inkscape:cy="32"
     inkscape:document-units="px"
     inkscape:current-layer="layer1"
     showgrid="false"
     inkscape:window-width="1920"
     inkscape:window-height="1001"
     inkscape:window-x="-9"
     inkscape:window-y="-9"
     inkscape:window-maximized="1"
     inkscape:grid-bbox="true" />
  <metadata
     id="metadata1391">
    <rdf:RDF>
      <cc:Work
         rdf:about="">
        <dc:format>image/svg+xml</dc:format>
        <dc:type
           rdf:resource="http://purl.org/dc/dcmitype/StillImage" />
        <dc:title></dc:title>
      </cc:Work>
    </rdf:RDF>
  </metadata>
  <g
     inkscape:label="Layer 1"
     inkscape:groupmode="layer"
     id="layer1">
    <circle
       style="fill:none;fill-opacity:1;stroke:#000000;stroke-width:4;stroke-linecap:round;stroke-linejoin:miter;stroke-miterlimit:4;stroke-dasharray:none;stroke-opacity:1;paint-order:normal"
       id="path1944"
       cx="32"
       cy="32"
       r="10.233861" />
    <path
       style="fill:none;fill-opacity:1;stroke:#000000;stroke-width:4;stroke-linecap:round;stroke-linejoin:miter;stroke-miterlimit:4;stroke-dasharray:none;stroke-opacity:1;paint-order:normal"
       d="m 53.148516,32 c 0,0.66736 -0.03091,1.327501 -0.09138,1.979068 -0.07988,0.860727 5.333215,3.607483 5.153295,4.435167 -0.45258,2.082008 -1.290998,4.445642 -2.307168,6.249155 -0.403719,0.716525 -6.313343,-0.889878 -6.795065,-0.228266 -0.366384,0.503203 -0.754429,0.989622 -1.162763,1.457888 -0.490776,0.562807 -1.010862,1.099389 -1.557879,1.607368 -0.731248,0.679062 1.261655,6.772357 0.439839,7.343506 -2.089346,1.452062 -4.45302,2.537005 -6.997624,3.161431 C 38.87702,58.239114 35.126627,52.943005 34.128049,53.04278 33.428188,53.11271 32.718276,53.148516 32,53.148516 c -0.867842,0 -1.723476,-0.05227 -2.563923,-0.153842 -0.705726,-0.08529 -3.935399,5.418427 -4.617948,5.265384 -2.789623,-0.625498 -5.054113,-1.564546 -7.306806,-3.172065 -0.524715,-0.374436 1.186222,-6.633633 0.698688,-7.0533 -0.68111,-0.586296 -1.324453,-1.215247 -1.925882,-1.882708 C 15.762452,45.573033 15.27231,44.965107 14.816409,44.330913 14.481904,43.865591 9.1757334,45.920781 8.8791642,45.428246 7.7694177,43.585204 6.1406666,40.054172 5.6330717,37.901053 5.4582762,37.159604 11.025474,34.739724 10.931012,33.970433 10.826228,33.117083 10.851484,32.881674 10.851484,32 c 0,-1.015436 -0.0076,-0.905246 0.130718,-1.882482 0.110084,-0.777514 -4.8829037,-3.961908 -4.685597,-4.78063 0.6192495,-2.56957 1.6500371,-5.243224 2.9790884,-7.400337 0.3675681,-0.59658 5.9064646,1.222586 6.3172636,0.718152 0.456792,-0.560911 0.941773,-1.097951 1.452784,-1.608962 0.490096,-0.490096 1.004134,-0.956249 1.540209,-1.396555 0.539133,-0.379663 -0.508309,-6.6790113 0.02744,-7.0162683 2.733367,-1.7206651 3.619808,-2.0104765 6.495526,-2.5338678 0.545772,-0.099333 4.503518,4.8936111 5.062673,4.8407521 0.600451,-0.05676 1.288585,-0.0072 1.907617,-0.0091 0.999883,0 1.270688,0.06939 2.233604,0.203616 0.992643,0.13837 4.973127,-5.3573284 5.91666,-5.0861424 2.179656,0.626467 5.007044,1.2771843 6.83652,2.5243287 0.864944,0.589629 -1.484438,7.1823467 -0.718009,7.8904697 0.615996,0.569133 1.198074,1.174441 1.742861,1.812547 0.568887,0.666335 0.859487,0.734773 1.343206,1.468798 0.410738,0.623279 5.858694,-1.106711 6.202903,-0.439699 0.974008,1.887306 2.385116,5.12821 2.754294,7.293185 0.09311,0.546033 -5.379265,2.920984 -5.328872,3.480435 0.05701,0.632962 0.08614,1.273965 0.08614,1.92177 z"
       id="path1946"
       inkscape:connector-curvature="0"
       sodipodi:nodetypes="cssssssssssssssssssssssssscssscssssssssssc" />
  </g>
</svg>
